<svg xmlns="http://www.w3.org/2000/svg" width="25" height="25" viewBox="0 0 25 25">
  <path id="icons8-barbell" d="M23.294,4a1.187,1.187,0,0,0-.842.349L21.441,5.358l6.2,6.2,1.009-1.011a1.19,1.19,0,0,0,0-1.683L24.136,4.349A1.187,1.187,0,0,0,23.294,4Zm3.818.019a1.771,1.771,0,0,0-1.263.5l-.023.023,2.627,2.627.023-.023a1.79,1.79,0,0,0,0-2.527l-.1-.1A1.777,1.777,0,0,0,27.112,4.019Zm-8.5.556a1.187,1.187,0,0,0-.842.349l-.646.644a1.193,1.193,0,0,0,0,1.686l8.61,8.608a1.19,1.19,0,0,0,1.683,0l.644-.644a1.184,1.184,0,0,0,0-1.683l-1.125-1.128L19.455,4.923A1.187,1.187,0,0,0,18.614,4.574Zm1.037,6.743-8.333,8.333,2.032,2.032,8.333-8.333ZM6.423,16.8a1.189,1.189,0,0,0-.842.337l-.646.644a1.19,1.19,0,0,0,0,1.683l7.4,7.4.028.03.363.36.821.821a1.19,1.19,0,0,0,1.683,0l.646-.646a1.19,1.19,0,0,0,0-1.683l-8.61-8.608A1.181,1.181,0,0,0,6.423,16.8ZM5.358,21.441,4.349,22.452a1.19,1.19,0,0,0,0,1.683l4.515,4.515a1.19,1.19,0,0,0,1.683,0l1.011-1.009Zm-.811,4.385-.023.023a1.788,1.788,0,0,0,0,2.527l.1.1a1.785,1.785,0,0,0,2.525,0l.023-.023Z" transform="translate(-4 -4)" fill="#fff"/>
</svg>
