<svg xmlns="http://www.w3.org/2000/svg" width="26.43" height="26.43" viewBox="0 0 26.43 26.43">
  <path id="icons8-oak_tree" d="M13.269,1a3.3,3.3,0,0,0-2.5,1.136A2.992,2.992,0,0,0,7.246,4.39a2.973,2.973,0,0,0-1.118-.224A3.024,3.024,0,0,0,3.116,7.195c0,.071.011.133.017.206a3.024,3.024,0,0,0,.361,5.85,3.516,3.516,0,0,0-.379,1.256,3.025,3.025,0,0,0,1.136,5.9,3,3,0,0,0,2.839,2.065,2.966,2.966,0,0,0,2.306-1.1,3.612,3.612,0,0,0,.723.086,4.025,4.025,0,0,0,1.927-.5,3.093,3.093,0,0,0,2.547-.258,2.467,2.467,0,0,0,3.476-.327,3.733,3.733,0,0,0,2.788-.344,3.019,3.019,0,1,0,4.629-3.8,3.023,3.023,0,0,0-.31-5.747,3.044,3.044,0,0,0-2.065-2.116,2.953,2.953,0,0,0,.241-1.153,3.024,3.024,0,0,0-3.011-3.028,2.989,2.989,0,0,0-1.48.379,2.969,2.969,0,0,0-2.529-1.48A3.289,3.289,0,0,0,13.269,1ZM14.49,21.958a4.166,4.166,0,0,1-1.463.258,4.276,4.276,0,0,1-.878-.086c-.071.03-.133.058-.206.086a13.127,13.127,0,0,1,.069,1.359c0,1.417-.873,1.617-2.323,1.772-.764.082-1.428.153-1.738.671a1.156,1.156,0,0,0-.017,1.067.558.558,0,0,0,.516.344H19.962a.549.549,0,0,0,.551-.551c0-1.045-1.067-1.11-1.7-1.153-1.125-.073-1.811-.2-1.841-1.617-.006-.3.026-1.082.069-1.858a3.407,3.407,0,0,1-.86.138A3.591,3.591,0,0,1,14.49,21.958Z" transform="translate(-1 -1)" fill="#fff"/>
</svg>
