<svg xmlns="http://www.w3.org/2000/svg" width="22.967" height="26.999" viewBox="0 0 22.967 26.999">
  <path id="icons8-comedy" d="M27.913,6.284c-.085-.175-2.237-4.276-11.4-4.276S5.158,6.1,5.071,6.28l-.063.12v.137c0,19.865,10.9,22.349,11.369,22.445l.119.025.119-.027c.464-.1,11.36-2.726,11.36-22.443V6.405ZM9.024,12.342s1.8-2.3,3.446-2.3c1.366,0,2.872,1.723,2.872,1.723s-1.629.314-3.226.485a21.466,21.466,0,0,1-3.092.092Zm7.467,10.339c-3.971,0-5.744-6.318-5.744-6.318l5.744,1.149,5.744-1.149s-1.773,6.318-5.744,6.318Zm4.375-10.428c-1.6-.171-3.226-.485-3.226-.485s1.5-1.723,2.872-1.723c1.651,0,3.446,2.3,3.446,2.3a21.466,21.466,0,0,1-3.092-.093Z" transform="translate(-5.008 -2.008)" fill="#0e182f"/>
</svg>
