<svg xmlns="http://www.w3.org/2000/svg" width="44.348" height="60" viewBox="0 0 44.348 60">
  <g id="Group_118" data-name="Group 118" transform="translate(-2542.5 -6791.498)">
    <path id="icons8-tesla_supercharger_pin" d="M29.843,2A21.822,21.822,0,0,0,8,23.756a21.365,21.365,0,0,0,1.717,8.473c2.395,5.569,18.7,28.263,19.4,29.231a1.31,1.31,0,0,0,2.12,0c.693-.963,17.007-23.662,19.4-29.231a21.365,21.365,0,0,0,1.717-8.473C52.348,11.961,42.04,2,29.843,2Z" transform="translate(2534.5 6789.498)" fill="#e6b74d"/>
    <g id="Oststern_121_123" transform="translate(2550 6799.657)">
      <rect id="Rectangle_33" data-name="Rectangle 33" width="29.463" height="28.411" transform="translate(0)" fill="none"/>
      <g id="Ostern_Logo_121_123" transform="translate(0 0.112)">
        <path id="Path_93" data-name="Path 93" d="M69.757,1.257H84.711V6.179h.757V.5H69V6.179h.757Z" transform="translate(-62.498 -0.5)"/>
        <path id="Path_94" data-name="Path 94" d="M84.711,242.611H69.757V237.5H69v5.868H85.468V237.5h-.757Z" transform="translate(-62.498 -215.069)"/>
        <path id="Path_95" data-name="Path 95" d="M5.6,77.107A2.591,2.591,0,0,0,2.95,74.4a2.707,2.707,0,0,0,0,5.414A2.591,2.591,0,0,0,5.6,77.107ZM2.95,79.038a1.944,1.944,0,0,1,0-3.871,1.944,1.944,0,0,1,0,3.871Z" transform="translate(-0.3 -67.406)"/>
        <path id="Path_96" data-name="Path 96" d="M62.737,93.284a.973.973,0,0,1-.956-.748l-.681.284a1.627,1.627,0,0,0,1.637,1.117c.861,0,1.439-.511,1.439-1.164,0-1.571-2.139-1-2.139-1.741,0-.246.227-.4.587-.4a.817.817,0,0,1,.8.587l.681-.284a1.5,1.5,0,0,0-1.5-.937c-.823,0-1.344.445-1.344,1.041,0,1.448,2.13.909,2.13,1.732C63.4,93.057,63.135,93.284,62.737,93.284Z" transform="translate(-55.346 -81.529)"/>
        <path id="Path_97" data-name="Path 97" d="M99.021,83.707a1.806,1.806,0,0,0,.606-.095l-.057-.738a1.162,1.162,0,0,1-.464.095.5.5,0,0,1-.521-.577V80.536h.984v-.7h-.984V78.7h-.823v1.136H97.1v.7h.663v1.912A1.149,1.149,0,0,0,99.021,83.707Z" transform="translate(-87.938 -71.299)"/>
        <path id="Path_98" data-name="Path 98" d="M130.537,93.284a.973.973,0,0,1-.956-.748l-.681.284a1.627,1.627,0,0,0,1.637,1.117c.861,0,1.439-.511,1.439-1.164,0-1.571-2.139-1-2.139-1.741,0-.246.227-.4.587-.4a.817.817,0,0,1,.8.587l.681-.284a1.5,1.5,0,0,0-1.5-.937c-.823,0-1.344.445-1.344,1.041,0,1.448,2.13.909,2.13,1.732A.593.593,0,0,1,130.537,93.284Z" transform="translate(-116.729 -81.529)"/>
        <path id="Path_99" data-name="Path 99" d="M166.812,83.707a1.806,1.806,0,0,0,.606-.095l-.057-.738a1.162,1.162,0,0,1-.464.095.5.5,0,0,1-.521-.577V80.536h.994v-.7h-.984V78.7h-.823v1.136H164.9v.7h.663v1.912A1.138,1.138,0,0,0,166.812,83.707Z" transform="translate(-149.321 -71.299)"/>
        <path id="Path_100" data-name="Path 100" d="M199.638,91.827A1.785,1.785,0,0,0,197.764,90a1.84,1.84,0,0,0-1.865,1.969,1.87,1.87,0,0,0,1.9,1.969,1.671,1.671,0,0,0,1.751-1.155l-.776-.2a.884.884,0,0,1-.956.653,1.093,1.093,0,0,1-1.107-1.069h2.915C199.629,92.1,199.638,91.94,199.638,91.827Zm-2.9-.284a1.007,1.007,0,0,1,1.013-.89.936.936,0,0,1,1,.89Z" transform="translate(-177.387 -81.529)"/>
        <path id="Path_101" data-name="Path 101" d="M244.323,90.884v-.729H243.5v3.814h.823v-1.42c0-1.183.492-1.685,1.051-1.685a1.172,1.172,0,0,1,.492.095l.047-.8a1.219,1.219,0,0,0-.426-.066A1.334,1.334,0,0,0,244.323,90.884Z" transform="translate(-220.482 -81.618)"/>
        <path id="Path_102" data-name="Path 102" d="M277.182,90a1.448,1.448,0,0,0-1.259.7v-.634H275.1V93.88h.823V92.205c0-.918.388-1.458,1.032-1.458a.746.746,0,0,1,.776.814V93.88h.823V91.363A1.289,1.289,0,0,0,277.182,90Z" transform="translate(-249.092 -81.529)"/>
        <path id="Path_103" data-name="Path 103" d="M.3,152v.8a2.556,2.556,0,0,0,1.23-.577V156.5h.833v-5.3H1.672A2.694,2.694,0,0,1,.3,152Z" transform="translate(-0.3 -136.937)"/>
        <path id="Path_104" data-name="Path 104" d="M33.572,152.147a1.637,1.637,0,0,0-1.808-1.647,1.727,1.727,0,0,0-1.808,1.94l.852.057c-.076-.738.3-1.23.956-1.23a.835.835,0,0,1,.909.871c0,.426-.256.833-.852,1.344L29.9,155.128v.738h3.672v-.776H31.14l1.211-1A2.6,2.6,0,0,0,33.572,152.147Z" transform="translate(-27.099 -136.303)"/>
        <path id="Path_105" data-name="Path 105" d="M75.763,156.5v-5.3h-.691a2.694,2.694,0,0,1-1.372.8v.8a2.556,2.556,0,0,0,1.23-.577V156.5Z" transform="translate(-66.753 -136.937)"/>
        <path id="Path_106" data-name="Path 106" d="M198.663,156.5v-5.3h-.691a2.694,2.694,0,0,1-1.372.8v.8a2.556,2.556,0,0,0,1.23-.577V156.5Z" transform="translate(-178.021 -136.937)"/>
        <path id="Path_107" data-name="Path 107" d="M229.872,152.147a1.637,1.637,0,0,0-1.808-1.647,1.727,1.727,0,0,0-1.808,1.94l.852.057c-.076-.738.3-1.23.956-1.23a.835.835,0,0,1,.909.871c0,.426-.256.833-.852,1.344l-1.921,1.647v.738h3.672v-.776H227.44l1.211-1A2.6,2.6,0,0,0,229.872,152.147Z" transform="translate(-204.82 -136.303)"/>
        <path id="Path_108" data-name="Path 108" d="M272.305,153.254l1.42-1.316V151.2h-3.464v.776h2.413l-1.543,1.458.36.577a1.11,1.11,0,0,1,.587-.17.927.927,0,0,1,1.041.965.975.975,0,0,1-1.079.975,1.06,1.06,0,0,1-1.126-.9l-.814.132a1.787,1.787,0,0,0,1.95,1.552,1.764,1.764,0,0,0,1.978-1.732A1.5,1.5,0,0,0,272.305,153.254Z" transform="translate(-244.565 -136.937)"/>
      </g>
    </g>
  </g>
</svg>
