<svg xmlns="http://www.w3.org/2000/svg" width="49.044" height="66" viewBox="0 0 49.044 66">
  <g id="Parks" transform="translate(0.5 0.5)">
    <path id="icons8-tesla_supercharger_pin" d="M31.663,2A23.641,23.641,0,0,0,8,25.569a23.145,23.145,0,0,0,1.86,9.179c2.594,6.033,20.263,30.618,21.014,31.667a1.419,1.419,0,0,0,2.3,0c.751-1.043,18.425-25.633,21.014-31.667a23.145,23.145,0,0,0,1.86-9.179C56.043,12.791,44.877,2,31.663,2Z" transform="translate(-8 -2)" fill="#63a5bf" stroke="#fff" stroke-width="1"/>
    <g id="Oststern_121_123" transform="translate(8.5 2)">
      <rect id="Rechteck_33" data-name="Rechteck 33" width="30.769" height="30" transform="translate(0)" fill="none"/>
      <g id="Ostern_Logo_121_123" transform="translate(0 7)">
        <path id="Pfad_93" data-name="Pfad 93" d="M69.8,1.3H85.531V6.52h.8V.5H69V6.52h.8Z" transform="translate(-62.159 -0.5)" fill="#fff"/>
        <path id="Pfad_94" data-name="Pfad 94" d="M85.531,242.918H69.8V237.5H69v6.221H86.328V237.5h-.8Z" transform="translate(-62.159 -213.721)" fill="#fff"/>
        <path id="Pfad_95" data-name="Pfad 95" d="M5.877,77.27A2.737,2.737,0,0,0,3.088,74.4a2.871,2.871,0,0,0,0,5.739A2.737,2.737,0,0,0,5.877,77.27ZM3.088,79.316a2.063,2.063,0,0,1,0-4.1,2.063,2.063,0,0,1,0,4.1Z" transform="translate(-0.3 -66.985)" fill="#fff"/>
        <path id="Pfad_96" data-name="Pfad 96" d="M62.823,93.482a1.026,1.026,0,0,1-1.006-.793l-.717.3a1.713,1.713,0,0,0,1.723,1.184,1.346,1.346,0,0,0,1.514-1.234c0-1.666-2.251-1.064-2.251-1.846,0-.261.239-.421.617-.421a.861.861,0,0,1,.846.622l.717-.3A1.573,1.573,0,0,0,62.693,90c-.866,0-1.414.472-1.414,1.1,0,1.535,2.241.963,2.241,1.836C63.52,93.241,63.241,93.482,62.823,93.482Z" transform="translate(-55.045 -81.02)" fill="#fff"/>
        <path id="Pfad_97" data-name="Pfad 97" d="M99.122,84.008a1.887,1.887,0,0,0,.637-.1l-.06-.783a1.215,1.215,0,0,1-.488.1c-.329,0-.548-.211-.548-.612V80.646H99.7V79.9H98.663V78.7H97.8v1.2h-.7v.742h.7v2.027A1.213,1.213,0,0,0,99.122,84.008Z" transform="translate(-87.46 -70.854)" fill="#fff"/>
        <path id="Pfad_98" data-name="Pfad 98" d="M130.623,93.482a1.026,1.026,0,0,1-1.006-.793l-.717.3a1.713,1.713,0,0,0,1.723,1.184,1.346,1.346,0,0,0,1.514-1.234c0-1.666-2.251-1.064-2.251-1.846,0-.261.239-.421.617-.421a.861.861,0,0,1,.846.622l.717-.3A1.573,1.573,0,0,0,130.493,90c-.866,0-1.414.472-1.414,1.1,0,1.535,2.241.963,2.241,1.836A.625.625,0,0,1,130.623,93.482Z" transform="translate(-116.093 -81.02)" fill="#fff"/>
        <path id="Pfad_99" data-name="Pfad 99" d="M166.912,84.008a1.887,1.887,0,0,0,.637-.1l-.06-.783a1.215,1.215,0,0,1-.488.1c-.329,0-.548-.211-.548-.612V80.646H167.5V79.9h-1.036V78.7H165.6v1.2h-.7v.742h.7v2.027A1.2,1.2,0,0,0,166.912,84.008Z" transform="translate(-148.508 -70.854)" fill="#fff"/>
        <path id="Pfad_100" data-name="Pfad 100" d="M199.834,91.936A1.886,1.886,0,0,0,197.862,90a1.944,1.944,0,0,0-1.962,2.087,1.976,1.976,0,0,0,2,2.087,1.759,1.759,0,0,0,1.842-1.224l-.817-.211a.931.931,0,0,1-1.006.692,1.153,1.153,0,0,1-1.165-1.134h3.067C199.824,92.227,199.834,92.057,199.834,91.936Zm-3.047-.3a1.062,1.062,0,0,1,1.066-.943.987.987,0,0,1,1.056.943Z" transform="translate(-176.421 -81.02)" fill="#fff"/>
        <path id="Pfad_101" data-name="Pfad 101" d="M244.366,90.931v-.773H243.5V94.2h.866V92.7c0-1.254.518-1.786,1.105-1.786a1.225,1.225,0,0,1,.518.1l.05-.843a1.274,1.274,0,0,0-.448-.07A1.4,1.4,0,0,0,244.366,90.931Z" transform="translate(-219.281 -81.108)" fill="#fff"/>
        <path id="Pfad_102" data-name="Pfad 102" d="M277.291,90a1.521,1.521,0,0,0-1.324.742V90.07H275.1v4.043h.866V92.338c0-.973.408-1.545,1.085-1.545a.788.788,0,0,1,.817.863v2.458h.866V91.445A1.361,1.361,0,0,0,277.291,90Z" transform="translate(-247.734 -81.02)" fill="#fff"/>
        <path id="Pfad_103" data-name="Pfad 103" d="M.3,152.053v.843a2.681,2.681,0,0,0,1.295-.612v4.535h.876V151.2H1.744A2.83,2.83,0,0,1,.3,152.053Z" transform="translate(-0.3 -136.08)" fill="#fff"/>
        <path id="Pfad_104" data-name="Pfad 104" d="M33.764,152.246a1.728,1.728,0,0,0-1.9-1.746,1.825,1.825,0,0,0-1.9,2.057l.9.06c-.08-.783.319-1.3,1.006-1.3a.882.882,0,0,1,.956.923c0,.451-.269.883-.9,1.425L29.9,155.406v.783h3.864v-.823H31.2l1.275-1.064A2.762,2.762,0,0,0,33.764,152.246Z" transform="translate(-26.952 -135.45)" fill="#fff"/>
        <path id="Pfad_105" data-name="Pfad 105" d="M75.871,156.819V151.2h-.727a2.83,2.83,0,0,1-1.444.853v.843a2.68,2.68,0,0,0,1.295-.612v4.535Z" transform="translate(-66.39 -136.08)" fill="#fff"/>
        <path id="Pfad_106" data-name="Pfad 106" d="M198.771,156.819V151.2h-.727a2.831,2.831,0,0,1-1.444.853v.843a2.68,2.68,0,0,0,1.295-.612v4.535Z" transform="translate(-177.051 -136.08)" fill="#fff"/>
        <path id="Pfad_107" data-name="Pfad 107" d="M230.064,152.246a1.728,1.728,0,0,0-1.9-1.746,1.825,1.825,0,0,0-1.9,2.057l.9.06c-.08-.783.319-1.3,1.006-1.3a.882.882,0,0,1,.956.923c0,.451-.269.883-.9,1.425l-2.022,1.746v.783h3.864v-.823H227.5l1.275-1.064A2.762,2.762,0,0,0,230.064,152.246Z" transform="translate(-203.704 -135.45)" fill="#fff"/>
        <path id="Pfad_108" data-name="Pfad 108" d="M272.42,153.377l1.494-1.395V151.2h-3.645v.823h2.539l-1.623,1.545.378.612a1.161,1.161,0,0,1,.617-.181.978.978,0,0,1,1.1,1.023,1.029,1.029,0,0,1-1.135,1.033,1.118,1.118,0,0,1-1.185-.953l-.856.14a1.884,1.884,0,0,0,2.051,1.645,1.862,1.862,0,0,0,2.081-1.836A1.584,1.584,0,0,0,272.42,153.377Z" transform="translate(-243.232 -136.08)" fill="#fff"/>
      </g>
    </g>
  </g>
</svg>
